{
  "accessors": [
    {
      "bufferView": 3,
      "componentType": 5126,
      "count": 3803,
      "max": [
        72.6686019897461,
        28.762849807739258,
        153.1658935546875
      ],
      "min": [
        -72.6686019897461,
        -33.26865005493164,
        1.575700044631958
      ],
      "type": "VEC3"
    },
    {
      "bufferView": 3,
      "byteOffset": 45636,
      "componentType": 5126,
      "count": 3803,
      "max": [
        0.9999073147773743,
        0.9999915957450867,
        0.9997280836105347
      ],
      "min": [
        -0.9999073147773743,
        -0.9999917149543762,
        -0.9998524785041809
      ],
      "type": "VEC3"
    },
    {
      "bufferView": 2,
      "componentType": 5126,
      "count": 3803,
      "max": [
        0.9970999956130981,
        1.993899941444397
      ],
      "min": [
        0.009800000116229057,
        1.0120999813079834
      ],
      "type": "VEC2"
    },
    {
      "bufferView": 1,
      "componentType": 5125,
      "count": 19878,
      "type": "SCALAR"
    },
    {
      "bufferView": 5,
      "componentType": 5126,
      "count": 25,
      "max": [
        1.0,
        0.016422126442193985,
        0.010319594293832779,
        0.0,
        0.016606217250227928,
        1.0,
        0.016593700274825096,
        0.0,
        0.016596036031842232,
        0.01666313037276268,
        1.0,
        0.0,
        1.344980001449585,
        0.8214200139045715,
        1.5041699409484863,
        1.0
      ],
      "min": [
        -0.015522201545536518,
        -0.016422126442193985,
        -0.010319928638637066,
        0.0,
        -0.016606217250227928,
        -0.015426901169121265,
        -0.01666313037276268,
        0.0,
        -0.016596036031842232,
        -0.016128549352288246,
        -0.016079479828476906,
        0.0,
        -1.344980001449585,
        -1.5247399806976318,
        -1.4240100383758545,
        1.0
      ],
      "type": "MAT4"
    },
    {
      "bufferView": 0,
      "componentType": 5123,
      "count": 3803,
      "type": "VEC4"
    },
    {
      "bufferView": 4,
      "componentType": 5126,
      "count": 3803,
      "max": [
        1.0,
        0.49876341223716736,
        0.31834420561790466,
        0.1994716227054596
      ],
      "min": [
        0.0,
        0.0,
        0.0,
        0.0
      ],
      "type": "VEC4"
    }
  ],
  "asset": {
    "extras": {
      "author": "restored mario 345 (https://sketchfab.com/nelsonjfrancor24)",
      "license": "CC-BY-4.0 (http://creativecommons.org/licenses/by/4.0/)",
      "source": "https://sketchfab.com/3d-models/mickey-mouse-b4639fe9fcee4a7e841048f645fcbc7a",
      "title": "mickey mouse"
    },
    "generator": "Sketchfab-12.68.0",
    "version": "2.0"
  },
  "bufferViews": [
    {
      "buffer": 0,
      "byteLength": 30424,
      "byteStride": 8,
      "name": "shortBufferViews",
      "target": 34962
    },
    {
      "buffer": 0,
      "byteLength": 79512,
      "byteOffset": 30424,
      "name": "floatBufferViews",
      "target": 34963
    },
    {
      "buffer": 0,
      "byteLength": 30424,
      "byteOffset": 109936,
      "byteStride": 8,
      "name": "floatBufferViews",
      "target": 34962
    },
    {
      "buffer": 0,
      "byteLength": 91272,
      "byteOffset": 140360,
      "byteStride": 12,
      "name": "floatBufferViews",
      "target": 34962
    },
    {
      "buffer": 0,
      "byteLength": 60848,
      "byteOffset": 231632,
      "byteStride": 16,
      "name": "floatBufferViews",
      "target": 34962
    },
    {
      "buffer": 0,
      "byteLength": 1600,
      "byteOffset": 292480,
      "name": "floatBufferViews"
    }
  ],
  "buffers": [
    {
      "byteLength": 294080,
      "uri": "scene.bin"
    }
  ],
  "images": [
    {
      "uri": "textures/default.001_baseColor.jpeg"
    }
  ],
  "materials": [
    {
      "doubleSided": true,
      "name": "default.001",
      "pbrMetallicRoughness": {
        "baseColorTexture": {
          "index": 0
        },
        "metallicFactor": 0.0,
        "roughnessFactor": 0.0
      }
    }
  ],
  "meshes": [
    {
      "name": "FUegd",
      "primitives": [
        {
          "attributes": {
            "JOINTS_0": 5,
            "NORMAL": 1,
            "POSITION": 0,
            "TEXCOORD_0": 2,
            "WEIGHTS_0": 6
          },
          "indices": 3,
          "material": 0,
          "mode": 4
        }
      ]
    }
  ],
  "nodes": [
    {
      "children": [
        1
      ],
      "matrix": [
        1.0,
        0.0,
        0.0,
        0.0,
        0.0,
        2.220446049250313e-16,
        -1.0,
        0.0,
        0.0,
        1.0,
        2.220446049250313e-16,
        0.0,
        0.0,
        0.0,
        0.0,
        1.0
      ],
      "name": "Sketchfab_model"
    },
    {
      "children": [
        2,
        4
      ],
      "name": "Root"
    },
    {
      "children": [
        3
      ],
      "matrix": [
        1.0,
        0.0,
        0.0,
        0.0,
        0.0,
        1.0,
        0.0,
        0.0,
        0.0,
        0.0,
        1.0,
        0.0,
        -2.21071,
        -0.57698,
        2.2045100000000004,
        1.0
      ],
      "name": "Lamp"
    },
    {
      "name": "Lamp"
    },
    {
      "children": [
        5,
        31,
        30
      ],
      "matrix": [
        1.2218699999999998,
        0.0,
        0.0,
        0.0,
        0.0,
        1.2218699999999998,
        0.0,
        0.0,
        0.0,
        0.0,
        1.2218699999999998,
        0.0,
        0.0,
        0.0,
        0.0,
        1.0
      ],
      "name": "metarig"
    },
    {
      "children": [
        6
      ],
      "name": "metarig_rootJoint"
    },
    {
      "children": [
        7,
        24,
        27
      ],
      "name": "hips_metarig",
      "rotation": [
        0.7789737582206726,
        0.0,
        0.0,
        0.6270565390586853
      ],
      "scale": [
        1.0,
        0.9999988079071045,
        0.9999988079071045
      ],
      "translation": [
        0.0,
        0.08590999990701675,
        1.0098999738693237
      ]
    },
    {
      "children": [
        8
      ],
      "name": "spine_metarig",
      "rotation": [
        -0.0546669140458107,
        0.0,
        0.0,
        0.998504638671875
      ],
      "scale": [
        1.0,
        0.9999969005584717,
        0.9999969005584717
      ],
      "translation": [
        0.0,
        0.1779100000858307,
        0.0
      ]
    },
    {
      "children": [
        9,
        10,
        17
      ],
      "name": "chest_metarig",
      "rotation": [
        -0.3057524859905243,
        0.0,
        0.0,
        0.9521110653877258
      ],
      "scale": [
        1.0,
        0.999998927116394,
        0.999998927116394
      ],
      "translation": [
        0.0,
        0.15898999571800232,
        0.0
      ]
    },
    {
      "name": "neck_metarig",
      "rotation": [
        0.28224679827690125,
        0.0,
        0.0,
        0.9593419432640076
      ],
      "scale": [
        1.0,
        0.9999958276748657,
        0.9999958276748657
      ],
      "translation": [
        0.0,
        0.1813800036907196,
        0.06347999721765518
      ]
    },
    {
      "children": [
        11
      ],
      "name": "shoulder.L_metarig",
      "rotation": [
        -0.5215153694152832,
        -0.17269130051136017,
        -0.5604413747787476,
        0.6197620034217834
      ],
      "scale": [
        1.0000053644180298,
        0.9999927878379822,
        0.9999998807907104
      ],
      "translation": [
        0.018300000578165054,
        0.10346999764442444,
        0.017230000346899033
      ]
    },
    {
      "children": [
        12
      ],
      "name": "upper_arm.L_metarig",
      "rotation": [
        -0.20569062232971191,
        0.7240217328071594,
        -0.38141342997550964,
        0.5366634726524353
      ],
      "scale": [
        1.000007152557373,
        0.9999995231628418,
        1.0000001192092896
      ],
      "translation": [
        0.01278000045567751,
        0.18648000061511993,
        -0.010870000347495079
      ]
    },
    {
      "children": [
        13
      ],
      "name": "forearm.L_metarig",
      "rotation": [
        0.09557650238275528,
        -0.10669105499982834,
        0.19006367027759552,
        0.9712661504745483
      ],
      "scale": [
        1.000004529953003,
        1.0000009536743164,
        0.9999926090240479
      ],
      "translation": [
        0.0,
        0.2652199864387512,
        0.0
      ]
    },
    {
      "children": [
        14,
        15
      ],
      "name": "hand.L_metarig",
      "rotation": [
        0.18386688828468323,
        0.6775894165039063,
        -0.25913968682289124,
        0.6632587313652039
      ],
      "scale": [
        1.0000003576278687,
        1.0000054836273193,
        0.9999969601631165
      ],
      "translation": [
        0.0,
        0.22054000198841095,
        0.0
      ]
    },
    {
      "name": "thumb.03.L_metarig",
      "rotation": [
        0.49994298815727234,
        -0.6676211357116699,
        0.10082660615444183,
        0.5423773527145386
      ],
      "scale": [
        0.9999980330467224,
        1.0000044107437134,
        0.9999951720237732
      ],
      "translation": [
        -0.13053999841213226,
        0.19191999733448029,
        -0.016599999740719795
      ]
    },
    {
      "children": [
        16
      ],
      "name": "palm.02.L_metarig",
      "rotation": [
        -0.2221037596464157,
        -0.11094453930854797,
        -0.11020634323358536,
        0.9624010324478149
      ],
      "scale": [
        0.9999961853027344,
        1.0000029802322388,
        0.9999969005584717
      ],
      "translation": [
        -0.0060800001956522465,
        0.04196999967098236,
        -0.007720000110566616
      ]
    },
    {
      "name": "f_middle.01.L_metarig",
      "rotation": [
        0.23690921068191528,
        0.056731030344963074,
        0.06044009327888489,
        0.9679889678955078
      ],
      "scale": [
        1.0000040531158447,
        0.9999996423721313,
        0.9999952912330627
      ],
      "translation": [
        0.0,
        0.1435600072145462,
        0.0
      ]
    },
    {
      "children": [
        18
      ],
      "name": "shoulder.R_metarig",
      "rotation": [
        -0.5042043924331665,
        0.18516728281974792,
        0.5405915379524231,
        0.6474965810775757
      ],
      "scale": [
        1.0000032186508179,
        1.0000052452087402,
        0.9999966025352478
      ],
      "translation": [
        -0.018300000578165054,
        0.10346999764442444,
        0.017230000346899033
      ]
    },
    {
      "children": [
        19
      ],
      "name": "upper_arm.R_metarig",
      "rotation": [
        -0.20823244750499725,
        -0.7285771369934082,
        0.39812082052230835,
        0.5170246362686157
      ],
      "scale": [
        0.9999963045120239,
        1.0000044107437134,
        1.000002145767212
      ],
      "translation": [
        -0.01278000045567751,
        0.18648000061511993,
        -0.010870000347495079
      ]
    },
    {
      "children": [
        20
      ],
      "name": "forearm.R_metarig",
      "rotation": [
        0.09557650238275528,
        0.10669105499982834,
        -0.19006367027759552,
        0.9712661504745483
      ],
      "scale": [
        1.000004529953003,
        1.0000009536743164,
        0.9999926090240479
      ],
      "translation": [
        0.0,
        0.2652199864387512,
        0.0
      ]
    },
    {
      "children": [
        21,
        22
      ],
      "name": "hand.R_metarig",
      "rotation": [
        0.18386688828468323,
        -0.6775894165039063,
        0.25913968682289124,
        0.6632587313652039
      ],
      "scale": [
        1.0000003576278687,
        1.0000054836273193,
        0.9999969601631165
      ],
      "translation": [
        0.0,
        0.22054000198841095,
        0.0
      ]
    },
    {
      "name": "thumb.03.R_metarig",
      "rotation": [
        0.49994298815727234,
        0.6676211357116699,
        -0.10082660615444183,
        0.5423773527145386
      ],
      "scale": [
        0.9999980330467224,
        1.0000044107437134,
        0.9999951720237732
      ],
      "translation": [
        0.13053999841213226,
        0.19191999733448029,
        -0.016599999740719795
      ]
    },
    {
      "children": [
        23
      ],
      "name": "palm.02.R_metarig",
      "rotation": [
        -0.2221037596464157,
        0.11094453930854797,
        0.11020634323358536,
        0.9624010324478149
      ],
      "scale": [
        0.9999961853027344,
        1.0000029802322388,
        0.9999969005584717
      ],
      "translation": [
        0.0060800001956522465,
        0.04196999967098236,
        -0.007720000110566616
      ]
    },
    {
      "name": "f_middle.01.R_metarig",
      "rotation": [
        0.23695945739746094,
        -0.05626284331083298,
        -0.06046217307448387,
        0.9680026173591614
      ],
      "scale": [
        1.0000035762786865,
        1.000001072883606,
        0.9999993443489075
      ],
      "translation": [
        0.0,
        0.1435600072145462,
        0.0
      ]
    },
    {
      "children": [
        25
      ],
      "name": "thigh.L_metarig",
      "rotation": [
        0.9912949204444885,
        0.11966421455144882,
        0.001046583754941821,
        0.05489777401089668
      ],
      "scale": [
        1.0000041723251343,
        0.9999963641166687,
        0.9999970197677612
      ],
      "translation": [
        0.09799999743700027,
        -0.12613999843597412,
        0.00860000029206276
      ]
    },
    {
      "children": [
        26
      ],
      "name": "shin.L_metarig",
      "rotation": [
        0.02315770462155342,
        -0.04445479437708855,
        -0.030858583748340607,
        0.9982662200927734
      ],
      "scale": [
        1.0000003576278687,
        0.9999975562095642,
        0.9999911189079285
      ],
      "translation": [
        0.0,
        0.3597300052642822,
        0.0
      ]
    },
    {
      "name": "foot.L_metarig",
      "rotation": [
        -0.760240912437439,
        -0.12801386415958405,
        -0.11663835495710373,
        0.6261323094367981
      ],
      "scale": [
        1.0000075101852417,
        0.9999967813491821,
        1.000004529953003
      ],
      "translation": [
        0.0,
        0.4276899993419647,
        0.0
      ]
    },
    {
      "children": [
        28
      ],
      "name": "thigh.R_metarig",
      "rotation": [
        0.9912949204444885,
        -0.11966421455144882,
        -0.001046583754941821,
        0.05489777401089668
      ],
      "scale": [
        1.0000041723251343,
        0.9999963641166687,
        0.9999970197677612
      ],
      "translation": [
        -0.09799999743700027,
        -0.12613999843597412,
        0.00860000029206276
      ]
    },
    {
      "children": [
        29
      ],
      "name": "shin.R_metarig",
      "rotation": [
        0.02315758913755417,
        0.04445457458496094,
        0.030858583748340607,
        0.9982662200927734
      ],
      "scale": [
        0.9999942779541016,
        0.9999978542327881,
        1.0000067949295044
      ],
      "translation": [
        0.0,
        0.3597300052642822,
        0.0
      ]
    },
    {
      "name": "foot.R_metarig",
      "rotation": [
        -0.760240912437439,
        0.12801386415958405,
        0.11663835495710373,
        0.6261323094367981
      ],
      "scale": [
        1.0000075101852417,
        0.9999967813491821,
        1.000004529953003
      ],
      "translation": [
        0.0,
        0.4276899993419647,
        0.0
      ]
    },
    {
      "matrix": [
        0.016690000000000003,
        0.0,
        0.0,
        0.0,
        0.0,
        -0.0,
        0.016690000000000003,
        0.0,
        0.0,
        -0.016690000000000003,
        -0.0,
        0.0,
        0.0,
        0.44406000000000007,
        0.0,
        1.0
      ],
      "name": "FUegd"
    },
    {
      "mesh": 0,
      "name": "FUegd_0",
      "skin": 0
    }
  ],
  "samplers": [
    {
      "magFilter": 9729,
      "minFilter": 9987,
      "wrapS": 10497,
      "wrapT": 10497
    }
  ],
  "scene": 0,
  "scenes": [
    {
      "name": "Sketchfab_Scene",
      "nodes": [
        0
      ]
    }
  ],
  "skins": [
    {
      "inverseBindMatrices": 4,
      "joints": [
        5,
        6,
        7,
        8,
        9,
        10,
        11,
        12,
        13,
        14,
        15,
        16,
        17,
        18,
        19,
        20,
        21,
        22,
        23,
        24,
        25,
        26,
        27,
        28,
        29
      ],
      "skeleton": 5
    }
  ],
  "textures": [
    {
      "sampler": 0,
      "source": 0
    }
  ]
}
